<?xml version="1.0" encoding="utf-8"?>
<svg xmlns="http://www.w3.org/2000/svg" version="1.2" baseProfile="tiny-ps" viewBox="0 0 112 112">
  <title>The Walt Disney Company</title>
  
  <defs>
    <linearGradient id="linear-gradient" x1="56" y1="2" x2="56" y2="114" gradientUnits="userSpaceOnUse">
      <stop offset="0" stop-color="#002635" />
      <stop offset=".4" stop-color="#003746" />
      <stop offset=".6" stop-color="#004b5b" />
      <stop offset=".8" stop-color="#005d6c" />
      <stop offset=".9" stop-color="#00707e" />
      <stop offset="1" stop-color="#00828d" />
      <stop offset="1" stop-color="#11b3b7" />
    </linearGradient>
    <radialGradient id="radial-gradient-2" cx="15" cy="120" r="60" gradientUnits="userSpaceOnUse">
      <stop offset="0.05" stop-color="#11b3b7" />
      <stop offset="1" stop-color="#006775" stop-opacity="0" />
    </radialGradient>
    <radialGradient id="radial-gradient-3" cx="112" cy="130" r="60" gradientUnits="userSpaceOnUse">
      <stop offset="0" stop-color="#11b3b7" />
      <stop offset="1" stop-color="#006775" stop-opacity="0" />
    </radialGradient>
    <radialGradient id="radial-gradient-4" cx="56" cy="130" r="60" gradientUnits="userSpaceOnUse">
      <stop offset="0.05" stop-color="#11b3b7" />
      <stop offset="1" stop-color="#006775" stop-opacity="0" />
    </radialGradient>
  </defs>
  <rect width="112" height="112" fill="url(#linear-gradient)" />
  <rect width="112" height="112" fill="url(#radial-gradient-2)" />
  <rect width="112" height="112" fill="url(#radial-gradient-3)" />
  <rect width="112" height="112" fill="url(#radial-gradient-4)" />
  <g>
    <path fill="#FFFFFF" d="M25.5,48.2c-2.7-0.8-6.9-1.8-11.6-0.5c-0.9,0.2-1.5,0.6-1.9,1.3c-0.2,0.4-0.4,0.8-0.3,1.2    c0.1,0.3,0.6,0.5,1,0.5c0.4,0.1,1.2,0.1,1.4-0.2c0.1-0.1,0.1-0.5-0.5-0.7c-0.2,0-0.9-0.1-0.9-0.2c0,0,0-0.1,0.4-0.2    c0.2,0,1.3-0.5,4.3-0.4c3.6,0.1,6.7,1,10.1,2.3c3.3,1.3,6.9,3.6,9.1,6.4c0.8,1,1.8,2.8,2,4.2c0.3,3.5-3.1,6.5-10.1,6.2    c-1.2,0-2.6-0.3-2.6-0.3L25.7,61c0,0,2.9,0,6.2,1c0.3,0.1,0.6,0.3,0.6,0.5c0,0.2-0.1,0.4-0.3,0.5c-0.3,0.3-0.8,0.4-0.9,0.5    c-0.1,0.1-0.1,0.2,0,0.3c0.2,0.2,0.8,0.3,1.3,0.3c0.8-0.1,1.4-0.5,1.8-1.2c0.4-0.7,0.7-2.3-1.6-3.4c-3-1.4-7-1.1-7-1.1    s0-0.9-0.1-1.5c-0.1-1-0.3-3-1.3-3.5c-0.2-0.1-0.4-0.1-0.5,0c-0.2,0.2-0.4,1.1-0.4,1.3c-0.3,2.1-0.3,3.9-0.3,3.9c0,0,0,0,0,0    c0,0-2.2,0.3-4.3,1.2c-0.8,0.4-2,1-2.4,1.9c-0.5,1.1,0.4,2.3,1.8,3.6c1.2,1.1,2.9,2.3,4.2,2.9c0.3,0.2,0.7,0.3,0.7,0.3    s0.1,0.8,0.2,1.2c0.2,1.6,1.5,1.4,1.8,1.3c0.6-0.1,0.7-0.5,0.7-0.9c0-0.2,0-0.6,0-0.6s0.8,0.2,1.4,0.3c1.6,0.3,3.4,0.4,5,0.1    c6.2-0.8,7.7-3.8,8.2-4.5c0.9-1.4,2.7-5.1-2.8-10.7C36.4,53.8,32.7,50.2,25.5,48.2z M17.3,63.4c-0.2-0.2-0.4-0.5-0.3-0.8    c0.1-0.3,0.6-0.6,0.9-0.6c2.8-0.8,5.2-0.9,5.2-0.9s0,1,0,2c0,1.9,0,3.9,0,3.9S19.9,66.1,17.3,63.4z">
    </path>
    <path fill="#FFFFFF" d="M45.7,56.4c1.3-0.5,2.3-1.2,3.3-2.3c0.6-0.6,1.1-1.6,0.9-2.5c-0.1-0.5-0.3-0.8-0.7-1.1    c-0.2-0.2-0.6-0.4-1-0.5c-0.1,0-0.2,0-0.3-0.1c0,0-0.1-0.1-0.1-0.2c-0.2-0.3-0.7-0.6-1-0.7c-1-0.3-2.3-0.1-3.3,0.3    c-1,0.4-1.9,1-2.5,1.7c-1.8,1.9-1,3.4-0.8,3.7c0.1,0.2,0.4,0.5,0.4,0.7c0,0.1,0,0.3,0,0.5c0,0.4,0.2,0.8,0.5,1.1    c0.2,0.2,0.5,0.2,0.8-0.2c0.1-0.2,0.3-0.5,0.3-0.5s0.4,0.2,1.2,0.3C44.2,56.8,45.1,56.6,45.7,56.4z M41.5,54.1    c0,0-0.1-0.1-0.1-0.2c-0.3-0.7,0.3-1.4,0.9-1.9c1.1-0.9,2-0.9,2-0.9s-0.2,0.2-0.4,0.3C42.3,52.8,41.5,54.1,41.5,54.1z M43.8,54.1    c0.6-0.8,1.8-1.9,2.7-2.4c0.7-0.4,1.2-0.5,1.6-0.3c0.3,0.1,0.5,0.3,0.5,0.6c0.1,0.9-1,1.7-1.7,2.1c-1.6,1-3.6,0.7-3.6,0.7    C43.2,54.8,43.6,54.3,43.8,54.1z">
    </path>
    <path fill="#FFFFFF" d="M83,59.2c-2.1-1.5-5.5,3.2-7,5.4c-0.2-1.2,0.6-2.6,0.6-2.6s1.3-2.2,1.4-2.6c0.2-0.4,0.3-1.4,0.1-1.5    c-0.2-0.1-0.5,0.2-0.5,0.2c-2.8,2.5-3.2,5.4-3.2,5.4c-0.3,1.5,0,2.6,0.5,3.3c-1.6,3.4-2.3,6.3-2.1,8c0.2,1.3,1.1,2.3,1.7,2.5    c0.6,0.2,0.7-0.5,0.7-0.5c0.5-3.6,1.3-6,2.3-8.3c3,0.7,5.2-2.2,6-3.6c0.5-0.8,0.7-1.9,0.7-3C84,60.8,83.7,59.7,83,59.2z     M81.1,64.9c-0.3,0.3-1.5,1-2.6,1.1c1.1-2.2,2.5-3.7,3.3-4.6c0.9-1,1-0.1,1-0.1C82.9,63.1,81.6,64.4,81.1,64.9z">
    </path>
    <path fill="#FFFFFF" d="M73.3,66.6c0.1-0.5-0.3-1.1-0.8-1.2c-0.4-0.1-3.6,0.5-4,0.6c-0.4,0.1-0.2-0.3-0.2-0.3l0.5-1.7    c0,0,3-0.1,3.5-0.2c0.4-0.1,0.4-0.4,0.4-0.4s0.1-0.5,0-0.9c0-0.5-0.4-0.4-0.4-0.4c-1.2-0.1-2.8,0-2.8,0l0.4-1.3    c0,0,3.2-0.2,4.4-0.4c0.6-0.1,0.3-0.8,0.3-0.8c-0.8-1.5-1.6-1.4-1.6-1.4c-2.5-0.1-6.2,0.6-6.6,0.8c-0.4,0.2-0.3,0.5,0.2,1.1    c0.5,0.7,1.4,0.6,1.4,0.6l-0.8,1.6c-0.6,0-0.9,0.2-0.9,0.2c-0.4,0.4,0.1,1.5,0.1,1.5s-1.1,2.5-0.3,3.8c0.9,1.4,1.9,1.3,1.9,1.3    C69.9,69.3,73.1,67.3,73.3,66.6z">
    </path>
    <path fill="#FFFFFF" d="M62.2,56.8c0,0-0.4-0.2-0.6,0.2c-0.1,0.4,0.1,0.9,0.1,0.9c1.1,3.8,1.4,6,1.4,6s0.1,0.7-0.1,0.7    c-0.1,0.1-0.2,0-0.2,0c-0.1,0-1.4-2.1-1.4-2.1l-0.2-0.4c-1.3-2.2-2.2-2.9-2.2-2.9c-0.2-0.2-0.7-0.7-1.3,0    c-0.6,0.7-1.1,2.9-1.3,4.9c-0.2,2.1,0,3.2,0.3,3.7c0.3,0.5,1,0.7,1.5,0.2c0.6-0.4,0.5-3.1,0.5-4.5c0.1-1.4,0.2-1.1,0.2-1.1    c0.1,0,0.8,1.2,0.8,1.2s1.7,3.4,2.7,3.9c1.1,0.5,1.9-0.3,2.2-1.1c0.3-0.8,0.9-3.3,0.1-6.1C63.9,57.7,62.2,56.8,62.2,56.8z">
    </path>
    <path fill="#FFFFFF" d="M44.8,64c0-0.9-0.2-3.3-0.4-4.4c-0.1-0.5-0.3-0.9-0.8-1.1c-0.1,0-0.1,0-0.2,0c-0.3-0.1-0.5,0.3-0.5,0.5    c-0.2,0.6-0.4,2-0.4,2.4c-0.1,1.3-0.2,4.4,0,6c0.1,0.7,0.3,1.1,1,1.2c0.3,0.1,0.8,0,1-0.1c0.2-0.1,0.3-0.3,0.4-0.5    c0.1-0.6,0.1-1.3,0.1-1.9C44.8,65.4,44.8,64.7,44.8,64z">
    </path>
    <path fill="#FFFFFF" d="M55.6,58.8c-1.4-0.8-3.8-0.8-5.3-0.6c-1.5,0.2-3.6,0.7-4.4,1.9c-0.3,0.5-0.5,1.2-0.4,1.8    c0.1,0.3,0.3,0.6,0.7,0.8c0.6,0.3,2.7,0.4,3.6,0.5c0.9,0.1,2.5,0.2,3.3,0.6c0,0,0.8,0.3,0.8,0.8c0,0.2-0.2,0.4-0.4,0.5    c-1.3,0.9-3.1,1.2-4.7,1.2c-0.5,0-1-0.1-1.5-0.3c-0.2-0.1-0.5-0.3-0.5-0.6c0.1-0.5,0.6-0.6,1.1-0.6c0.3,0,0.6,0.1,0.8,0.2    c1,0.4,1.5,0.7,2.4,0.6c0.3-0.1,1.5-0.3,1.7-0.8c0-0.1,0-0.2-0.1-0.3c-0.1-0.1-0.8-0.4-1-0.5c-0.7-0.2-2-0.5-2.7-0.5    c-0.9,0-2.2,0.2-2.8,0.9c-0.5,0.7-0.6,2.1,1.8,3.3c1.1,0.6,2.5,0.8,3.7,0.7c0.7-0.1,2.8-0.4,3.6-2c0.4-0.9,0.4-2.1-0.1-2.9    C55,63,54.7,62.2,52,61.9c-0.4-0.1-3.6-0.4-3.9-0.5c-0.2,0-0.9-0.1-0.6-0.4c0.1-0.1,0.3-0.1,0.4-0.2c1.7-0.5,3.8-0.4,5.5-0.5    c0.4,0,1.3-0.1,1.7-0.2c0.4-0.1,0.7-0.4,0.8-0.9C56,59,55.9,58.9,55.6,58.8z">
    </path>
    <path fill="#FFFFFF" d="M98.8,60.8l-5,0c-0.1-1.7-0.2-3.4-0.5-5.1c-0.1-0.3-0.3-0.5-0.6-0.5h-1.3c-0.3,0-0.5,0.2-0.4,0.5    c0.3,1.7,0.5,3.4,0.6,5.1l-5.1,0c-0.2,0-0.4,0.2-0.4,0.4v1.5c0,0.2,0.2,0.4,0.4,0.4h5.1c-0.1,1.7-0.2,3.4-0.6,5.1    c0,0.3,0.1,0.5,0.4,0.5h1.3c0.3,0,0.5-0.2,0.6-0.5c0.3-1.7,0.5-3.4,0.5-5.1h5c0.2,0,0.4-0.2,0.4-0.4v-1.5    C99.3,61,99.1,60.8,98.8,60.8z">
    </path>
    <path fill="#FFFFFF" d="M30.3,42.4c0.2,0.1,0.5,0,0.7-0.2c1.7-1.8,3.6-3.4,5.7-4.9c14-9.5,34.4-8.1,46.4,3.9    c3.9,3.9,6.1,8.2,7.2,11.5c0.1,0.2,0.3,0.4,0.6,0.4h1.4c0.3,0,0.5-0.3,0.4-0.6c-1.5-4.4-4.4-9.3-8.6-13.2    c-12.6-11.9-33-13.2-47.2-3.5c-2.3,1.6-4.6,3.6-6.7,5.9C30.1,42,30.2,42.3,30.3,42.4z">
    </path>
  </g>

</svg>